# xmcd
#
# Track frame offsets: 
#        150
#        15192
#        31254
#        43866
#        58095
#        77809
#        90938
#        119938
#        140526
#        160728
#
# Disc length: 2406 seconds
#
# Revision: 0
# Processed by: cddbd v1.5.2PL0 Copyright (c) Steve Scherf et al.
# Submitted via: ExactAudioCopyFreeDBPlugin 1.0
#
DISCID=7a09640a
DTITLE=Sena Ehrhardt - Leave The Light On
DYEAR=2011
DGENRE=Blues
TTITLE0=01 My Bad
TTITLE1=02 Leave The Light On
TTITLE2=03 On The Clock
TTITLE3=04 Lovers can't Be Friends
TTITLE4=05 The Best Thing
TTITLE5=06 Same Team
TTITLE6=07 Last Chance
TTITLE7=08 You're The One
TTITLE8=09 Hear Me
TTITLE9=10 Fool Out Of Me
EXTD=
EXTT0=
EXTT1=
EXTT2=
EXTT3=
EXTT4=
EXTT5=
EXTT6=
EXTT7=
EXTT8=
EXTT9=
PLAYORDER=
